<svg width="266" height="359" viewBox="0 0 266 359" fill="none" xmlns="http://www.w3.org/2000/svg">
<path fill-rule="evenodd" clip-rule="evenodd" d="M209.026 67.2724L207.481 59.1662C202.962 35.456 178.478 15 146.156 15C117.792 15 95.1578 30.9145 87.2292 50.928L81.6684 64.9645L67.6683 59.3125C64.9485 58.2145 61.9472 57.5981 58.756 57.5981C45.6718 57.5981 35.5646 67.9257 35.5646 80.055C35.5646 83.0483 36.1613 85.8735 37.2368 88.4526L41.981 99.8287L31.7406 106.688C21.0933 113.821 15 124.537 15 135.873C15 154.756 32.8573 173.019 58.756 173.019C59.1383 173.019 59.519 173.015 59.8982 173.007L75.2249 172.673V173.019H196.098H196.973L197.846 172.993C227.572 172.09 250.871 148.299 250.871 119.715C250.871 97.5456 236.911 78.2993 216.7 70.3069L209.026 67.2724ZM198.301 187.986V188.019H196.098H183.301H75.2249H60.2252H60.2249V188.003C59.7367 188.014 59.247 188.019 58.756 188.019C58.2649 188.019 57.7753 188.014 57.2871 188.003C25.5158 187.311 0 164.237 0 135.873C0 118.857 9.1838 103.744 23.3925 94.2261C21.5694 89.8547 20.5646 85.0699 20.5646 80.055C20.5646 59.3681 37.6635 42.5981 58.756 42.5981C63.7222 42.5981 68.467 43.5278 72.8194 45.2193C72.9746 45.2797 73.1294 45.341 73.2837 45.4033C73.3823 45.1544 73.4825 44.9061 73.5843 44.6586C84.2948 18.6175 112.744 0 146.156 0C184.387 0 216.121 24.3762 222.216 56.3579C247.811 66.4792 265.871 91.0326 265.871 119.715C265.871 156.717 235.816 186.846 198.301 187.986ZM98.5096 217.5C98.5096 213.91 95.5994 211 92.0096 211C88.4197 211 85.5096 213.91 85.5096 217.5V256.327C85.5096 266.515 83.9371 272.219 80.7885 275.61C77.7273 278.906 71.6932 281.555 58.5794 281.555H55.1435C52.314 271.151 42.8005 263.5 31.5 263.5C17.969 263.5 7 274.469 7 288C7 301.531 17.969 312.5 31.5 312.5C42.7606 312.5 52.2469 304.903 55.1133 294.555H58.5794C72.8176 294.555 83.4986 291.796 90.3145 284.456C97.0429 277.21 98.5096 267.051 98.5096 256.327V217.5ZM42 288C42 293.799 37.299 298.5 31.5 298.5C25.701 298.5 21 293.799 21 288C21 282.201 25.701 277.5 31.5 277.5C37.299 277.5 42 282.201 42 288ZM144 334C144 340.075 139.075 345 133 345C126.925 345 122 340.075 122 334C122 327.925 126.925 323 133 323C139.075 323 144 327.925 144 334ZM158 334C158 347.807 146.807 359 133 359C119.193 359 108 347.807 108 334C108 322.441 115.844 312.715 126.5 309.853V215C126.5 211.41 129.41 208.5 133 208.5C136.59 208.5 139.5 211.41 139.5 215V309.853C150.156 312.715 158 322.441 158 334ZM168 217.5C168 213.91 170.91 211 174.5 211C178.09 211 181 213.91 181 217.5V256.327C181 266.515 182.572 272.219 185.721 275.61C188.782 278.906 194.816 281.555 207.93 281.555H211.866C214.696 271.151 224.209 263.5 235.51 263.5C249.041 263.5 260.01 274.469 260.01 288C260.01 301.531 249.041 312.5 235.51 312.5C224.249 312.5 214.763 304.903 211.896 294.555H207.93C193.692 294.555 183.011 291.796 176.195 284.456C169.467 277.21 168 267.051 168 256.327V217.5ZM225.01 288C225.01 293.799 229.711 298.5 235.51 298.5C241.309 298.5 246.01 293.799 246.01 288C246.01 282.201 241.309 277.5 235.51 277.5C229.711 277.5 225.01 282.201 225.01 288Z" fill="black"/>
</svg>
